<?xml version="1.0" standalone="no"?>
<!DOCTYPE svg PUBLIC "-//W3C//DTD SVG 20010904//EN"
 "http://www.w3.org/TR/2001/REC-SVG-20010904/DTD/svg10.dtd">
<svg version="1.0" xmlns="http://www.w3.org/2000/svg"
 width="898.000000pt" height="898.000000pt" viewBox="0 0 898.000000 898.000000"
 preserveAspectRatio="xMidYMid meet">
<metadata>
Created by potrace 1.14, written by Peter Selinger 2001-2017
</metadata>
<g transform="translate(0.000000,898.000000) scale(0.100000,-0.100000)"
fill="#000000" stroke="none">
<path d="M3150 8859 c-80 -16 -181 -37 -225 -46 -81 -17 -207 -59 -325 -109
-62 -26 -228 -85 -394 -141 l-78 -26 -72 17 c-90 22 -258 61 -356 83 -81 18
-358 24 -460 11 -88 -12 -184 -43 -241 -80 -87 -54 -131 -70 -219 -83 -59 -8
-192 -51 -255 -83 -99 -49 -276 -209 -340 -307 -80 -124 -93 -213 -70 -490 18
-225 31 -291 77 -378 58 -107 186 -225 293 -270 210 -87 356 -98 479 -36 38
19 41 19 57 2 15 -16 16 -42 9 -278 -13 -476 -8 -539 60 -745 44 -135 140
-402 156 -437 8 -17 14 -34 14 -38 0 -4 11 -33 24 -64 14 -31 44 -101 67 -156
24 -55 64 -134 89 -175 26 -41 49 -83 53 -92 8 -22 33 -23 41 -2 3 8 10 13 15
9 6 -3 5 -18 -3 -38 -8 -17 -16 -56 -20 -85 -7 -58 -41 -132 -60 -132 -28 0
-92 -118 -149 -270 -109 -293 -132 -352 -168 -425 -59 -118 -120 -232 -161
-300 -39 -66 -62 -113 -103 -220 -15 -38 -73 -187 -130 -330 -118 -297 -125
-319 -161 -475 -37 -165 -42 -311 -15 -468 50 -291 105 -459 212 -645 59 -102
177 -293 218 -352 19 -27 44 -63 55 -80 92 -133 304 -365 377 -413 109 -70
182 -66 143 9 -33 64 -4 49 93 -49 57 -57 117 -109 138 -118 26 -10 35 -20 31
-30 -7 -20 37 -64 64 -64 45 0 29 24 -130 204 -223 253 -276 316 -400 481
-231 308 -375 534 -437 687 -62 154 -107 338 -130 530 -15 120 -15 156 -4 280
15 174 53 366 91 462 93 236 112 280 140 335 17 34 46 83 64 109 93 130 323
654 410 934 53 172 125 456 132 523 3 33 14 107 25 165 27 152 47 368 53 575
7 209 -1 310 -24 310 -12 0 -16 -26 -22 -145 -14 -261 -41 -564 -55 -604 -7
-21 -13 -56 -13 -76 0 -83 -28 -93 -58 -22 -72 170 -163 504 -183 677 -13 104
-5 470 10 530 6 22 15 76 21 119 12 80 54 255 69 285 5 9 12 34 16 56 3 21 13
51 20 65 7 14 16 43 20 64 7 35 6 37 -14 34 -38 -5 -93 -132 -130 -298 -9 -45
-29 -123 -57 -231 -8 -31 -19 -116 -24 -190 -6 -73 -13 -135 -16 -138 -3 -3
-12 3 -20 13 -11 16 -14 66 -14 244 0 397 39 560 222 926 81 162 310 477 436
600 l50 48 123 -17 c216 -29 267 -44 452 -129 77 -36 122 -22 85 26 -30 39
-292 163 -403 192 -391 101 -915 78 -1192 -51 -59 -27 -85 -23 -56 9 64 71
383 273 476 302 26 8 15 30 -17 34 -111 13 -429 -189 -552 -351 -26 -34 -60
-76 -75 -94 -32 -38 -98 -173 -134 -274 -47 -136 -28 -275 60 -424 42 -72 132
-172 177 -197 65 -36 57 -50 -43 -72 -103 -23 -135 -18 -218 32 -84 51 -128
96 -183 189 -81 138 -121 302 -122 493 0 147 25 257 77 336 41 62 162 145 332
229 218 108 351 147 598 176 87 10 133 10 235 0 320 -31 645 -116 793 -207 90
-56 180 -131 239 -201 71 -83 96 -55 48 54 -28 64 -176 206 -255 247 -18 9
-33 23 -33 31 0 19 252 145 370 185 108 36 284 81 410 104 121 22 439 38 531
26 186 -24 342 -51 429 -75 52 -15 121 -34 154 -43 154 -41 575 -293 824 -493
139 -111 272 -239 272 -262 0 -4 -21 -5 -47 -2 -39 6 -58 2 -103 -19 -32 -15
-73 -26 -98 -26 -29 0 -53 -7 -69 -20 -14 -11 -34 -20 -43 -20 -10 0 -67 29
-126 65 -250 151 -657 327 -898 389 -290 75 -565 101 -801 76 l-120 -12 -50
-52 c-101 -103 -194 -272 -214 -387 -5 -30 -17 -88 -27 -129 -14 -57 -18 -117
-19 -250 0 -193 8 -268 32 -277 25 -10 31 14 31 126 1 100 19 253 43 359 40
184 173 495 226 529 24 16 52 18 228 18 138 0 237 -6 320 -18 164 -24 453 -96
610 -153 72 -25 148 -52 170 -60 62 -22 457 -222 489 -248 l29 -22 -34 -21
c-52 -30 -107 -82 -150 -140 -22 -29 -39 -54 -39 -57 0 -3 -11 -30 -25 -60
-14 -30 -25 -63 -25 -73 0 -10 -9 -37 -20 -61 -11 -24 -22 -72 -26 -107 -9
-83 -16 -95 -48 -75 -100 60 -200 119 -251 148 -405 222 -961 432 -1158 436
-67 1 -72 -1 -75 -21 -3 -17 3 -23 30 -28 120 -26 551 -164 571 -184 12 -12 9
-16 -96 -141 -101 -120 -233 -320 -221 -333 12 -12 39 12 79 68 127 182 293
365 330 365 22 0 130 -54 140 -70 6 -9 -6 -19 -105 -83 -141 -90 -193 -142
-162 -161 4 -2 53 25 107 61 55 36 126 78 157 94 31 16 59 33 63 39 13 22 59
8 182 -56 255 -132 414 -229 431 -262 5 -9 12 -75 14 -147 l5 -130 -34 -65
c-21 -41 -35 -83 -38 -115 -2 -27 -4 -53 -4 -56 -1 -4 -13 -10 -28 -13 -73
-18 -202 -78 -251 -117 -36 -29 -109 -118 -141 -174 -30 -50 -40 -151 -18
-179 21 -29 44 -14 71 48 32 71 96 156 135 179 39 23 39 14 1 -42 -46 -68 -63
-136 -51 -208 15 -96 93 -195 194 -248 63 -33 161 -35 242 -4 31 12 59 18 62
15 12 -12 22 -122 16 -172 -4 -39 -1 -57 12 -78 32 -49 57 -210 36 -231 -22
-23 -90 -229 -101 -309 -6 -39 -19 -80 -31 -97 -11 -16 -71 -71 -132 -122 -62
-52 -166 -151 -232 -222 -165 -178 -174 -186 -262 -230 -278 -137 -387 -171
-613 -190 -75 -6 -197 12 -241 36 -19 10 -98 77 -163 137 -38 35 -67 51 -83
45 -19 -8 -16 -23 14 -66 l27 -39 -24 -18 c-29 -22 -73 -35 -166 -51 -60 -11
-86 -10 -170 4 -143 24 -209 52 -272 113 l-53 51 7 149 c3 82 9 152 13 156 3
4 31 -8 61 -27 53 -33 278 -115 315 -115 10 0 33 -10 52 -21 33 -20 36 -21 51
-5 16 16 15 19 -16 47 -18 16 -41 29 -51 29 -10 0 -24 7 -31 15 -15 18 -115
75 -132 75 -27 0 -136 59 -190 104 l-58 47 0 102 c0 133 -15 300 -45 519 -14
97 -25 189 -25 203 0 43 83 241 192 458 25 49 -25 10 -68 -53 -66 -97 -84
-127 -109 -183 -29 -66 -46 -69 -59 -11 -16 73 -57 229 -72 269 -21 59 -18 70
24 103 35 27 242 132 262 132 11 0 70 50 70 60 0 9 -131 -22 -185 -44 -66 -28
-128 -60 -154 -78 -40 -30 -60 -23 -82 29 -32 74 -25 92 46 114 152 47 467
102 602 104 100 2 119 8 89 31 -52 37 -508 -9 -704 -72 -72 -23 -73 -23 -92
-4 -10 10 -25 41 -33 67 -9 26 -29 82 -47 123 -42 98 -45 111 -32 119 19 11
277 12 470 1 228 -13 372 -39 467 -86 78 -38 118 -44 113 -17 -3 18 -10 22
-117 73 -62 30 -82 36 -286 86 -120 30 -414 49 -601 39 l-120 -6 -28 51 c-29
54 -57 65 -76 30 -11 -21 -7 -34 48 -170 17 -41 56 -140 87 -220 31 -80 69
-176 84 -215 37 -93 135 -400 160 -500 18 -71 51 -295 97 -660 9 -74 15 -218
16 -375 2 -236 0 -267 -25 -410 -33 -194 -88 -380 -157 -535 -71 -159 -126
-257 -245 -440 -72 -110 -133 -185 -297 -363 -77 -84 -150 -164 -161 -178 -30
-39 -147 -237 -147 -250 0 -6 -6 -17 -14 -23 -11 -9 -16 -9 -22 1 -18 29 -35
165 -40 328 -6 168 -5 181 24 325 36 175 63 265 103 349 34 70 33 66 14 66 -9
0 -20 -11 -25 -25 -5 -14 -18 -25 -27 -25 -45 0 -134 -238 -177 -474 -48 -258
-45 -340 18 -561 33 -118 124 -346 190 -475 43 -85 158 -238 282 -374 54 -60
112 -124 127 -143 16 -18 102 -98 190 -177 89 -79 176 -158 192 -176 17 -18
107 -101 201 -185 94 -85 240 -224 325 -310 129 -132 205 -195 234 -195 3 0 5
13 5 30 0 29 -53 106 -142 205 -44 48 -49 75 -15 75 48 0 301 89 422 149 106
51 295 217 295 258 0 33 -24 39 -65 14 -20 -12 -43 -21 -51 -21 -16 0 -207
134 -349 245 -195 152 -366 340 -519 568 -189 283 -328 658 -392 1057 -29 179
-8 361 54 467 88 152 149 292 212 488 18 55 35 103 39 107 4 4 31 -11 61 -34
30 -22 78 -51 105 -64 64 -29 228 -57 296 -51 91 7 215 35 258 56 51 27 67 26
105 -2 106 -79 178 -102 311 -101 111 1 142 7 388 75 43 12 80 19 83 17 2 -3
-14 -42 -37 -87 -57 -115 -85 -252 -69 -340 6 -35 19 -80 30 -100 19 -38 113
-133 165 -168 84 -57 301 -99 386 -75 20 5 41 7 47 3 6 -3 33 -69 61 -146 63
-178 95 -259 121 -302 27 -46 25 -54 -15 -80 -95 -62 -336 -311 -495 -510 -22
-29 -46 -50 -53 -47 -7 3 -29 30 -51 61 l-39 56 9 111 c18 232 0 515 -42 636
-16 48 -32 80 -40 80 -17 0 -18 -22 -4 -70 6 -19 17 -77 26 -129 15 -94 12
-155 -9 -148 -6 2 -34 61 -62 133 -62 156 -87 206 -175 349 -37 61 -98 162
-135 225 -114 193 -296 423 -361 458 -17 9 -24 9 -34 -3 -10 -12 -3 -24 37
-67 27 -29 74 -82 105 -119 195 -233 532 -860 604 -1124 22 -82 42 -205 36
-227 -7 -30 -36 -20 -73 25 -55 65 -198 182 -291 238 -68 41 -89 49 -116 45
-39 -6 -132 -81 -171 -138 -14 -20 -33 -37 -43 -38 -41 -1 -350 367 -483 577
-109 172 -327 638 -350 750 -12 58 -62 103 -80 73 -4 -6 -7 -163 -7 -348 -1
-249 4 -377 16 -492 60 -554 193 -937 420 -1209 152 -182 421 -404 582 -481
54 -25 108 -62 156 -105 40 -36 74 -70 76 -74 4 -12 -91 -148 -158 -225 -57
-66 -75 -106 -47 -106 24 0 212 201 241 258 21 40 34 46 70 32 21 -7 32 -7 42
1 8 6 20 9 29 6 13 -5 13 -11 -1 -49 -37 -103 -109 -382 -125 -487 -13 -85 -3
-137 24 -129 22 8 71 122 101 234 35 136 102 350 122 387 8 16 14 39 14 52 0
13 10 35 23 48 29 33 203 137 228 137 14 0 34 -33 85 -137 61 -127 72 -143
153 -222 47 -47 112 -101 144 -120 72 -42 197 -86 302 -107 51 -10 86 -23 96
-35 16 -17 15 -24 -7 -94 -48 -150 -23 -185 67 -95 41 41 55 49 74 44 26 -6
37 8 50 70 l6 28 77 -7 c112 -10 116 -14 109 -91 -10 -103 24 -161 57 -96 21
42 45 170 44 237 -1 45 4 72 23 110 36 75 54 73 168 -20 142 -115 237 -156
458 -197 56 -11 78 -9 204 14 158 30 205 55 221 116 10 36 31 45 99 40 l44 -3
-3 -45 c-13 -224 -13 -253 -3 -263 30 -30 91 109 99 225 l5 78 36 10 c20 5 63
15 96 21 100 19 156 38 260 90 169 85 246 135 298 195 59 67 69 61 62 -38 -3
-46 -7 -162 -10 -258 -3 -115 -9 -189 -19 -215 -16 -46 -14 -55 13 -48 20 5
48 56 69 123 57 178 70 757 22 950 -5 19 -16 90 -24 156 -8 67 -22 138 -30
159 -9 21 -16 54 -16 74 0 54 -41 207 -103 386 -31 88 -78 230 -106 315 -62
191 -89 269 -101 295 -5 11 -19 47 -31 80 -32 89 -111 266 -174 388 -30 59
-55 115 -55 125 0 10 25 48 55 85 75 91 117 159 196 317 58 118 79 164 120
267 5 13 13 23 19 23 12 0 87 -149 161 -320 95 -217 102 -234 134 -316 46
-117 129 -386 171 -554 20 -80 52 -230 89 -410 64 -317 112 -695 140 -1095 8
-121 20 -274 25 -341 5 -66 9 -201 9 -299 0 -101 5 -183 10 -188 15 -15 40 0
51 29 17 44 41 240 49 394 5 87 13 155 21 170 42 78 105 398 140 712 22 199
54 423 70 495 40 178 57 751 31 1033 -23 246 -84 460 -131 460 -20 0 -22 -4
-18 -52 3 -29 12 -82 21 -118 55 -229 72 -611 43 -1013 -16 -219 -27 -290 -40
-257 -3 8 -15 71 -26 140 -65 385 -241 892 -470 1350 -99 199 -144 275 -228
384 -42 55 -44 61 -31 81 110 170 144 202 227 212 31 3 58 13 68 24 24 27 38
24 66 -13 20 -27 284 -449 323 -516 6 -9 27 -43 47 -74 65 -100 108 -194 212
-459 74 -187 182 -571 197 -694 5 -44 18 -153 29 -243 39 -322 38 -390 -15
-657 -67 -336 -164 -681 -265 -940 -17 -44 -35 -91 -40 -105 -9 -29 -18 -48
-144 -338 -66 -149 -95 -230 -96 -266 0 -19 44 32 103 117 48 71 62 85 69 73
5 -9 7 -24 4 -34 -3 -9 1 -25 9 -36 33 -44 97 14 200 183 106 174 198 402 284
705 125 436 152 631 115 825 -14 75 -15 104 -4 229 13 148 9 235 -15 362 -8
41 -21 120 -30 175 -19 130 -106 419 -165 550 -5 11 -23 58 -40 105 -67 181
-94 248 -135 325 -23 44 -57 118 -76 165 -43 110 -135 290 -198 388 -64 100
-84 147 -76 182 6 28 47 65 95 87 301 134 361 194 390 391 12 82 36 375 55
657 10 162 18 223 34 265 78 211 83 396 21 805 -56 368 -89 468 -218 665 -185
283 -349 422 -567 480 -133 35 -370 45 -600 26 -104 -9 -226 -26 -270 -36
-106 -26 -210 -39 -320 -40 -88 -1 -200 -13 -395 -44 -52 -8 -131 -19 -176
-25 -45 -5 -148 -33 -235 -62 -145 -48 -159 -51 -235 -47 -109 6 -179 42 -315
162 -25 23 -72 64 -105 92 -32 29 -88 77 -124 108 -102 89 -346 246 -502 324
-363 180 -453 213 -687 247 -143 22 -200 25 -411 24 -230 0 -254 -2 -390 -30z
m-2132 -405 c25 -7 11 -23 -25 -29 -21 -3 -57 -15 -81 -26 -23 -10 -50 -19
-59 -19 -9 0 -80 -31 -157 -70 -175 -86 -301 -179 -359 -264 -22 -33 -43 -54
-45 -47 -6 17 52 132 81 159 36 34 238 153 437 259 36 19 69 38 74 43 8 8 103
4 134 -6z m577 -404 c9 -15 -25 -84 -90 -185 -75 -116 -119 -211 -139 -305
-20 -90 -55 -190 -67 -190 -5 0 -8 -6 -7 -12 2 -7 -3 -12 -9 -10 -7 1 -13 -3
-13 -9 0 -6 -28 -44 -62 -85 -54 -65 -106 -104 -135 -104 -15 0 -194 78 -222
97 -14 10 -29 18 -33 18 -8 0 -58 73 -58 84 0 5 -9 28 -20 52 -11 24 -20 63
-20 86 0 49 51 211 85 270 59 99 233 203 416 247 213 51 359 69 374 46z m6004
-114 c8 -9 8 -16 2 -20 -14 -9 -58 3 -72 20 -9 12 -5 14 24 14 19 0 40 -6 46
-14z m-6165 -492 c-110 -216 -124 -240 -125 -219 -6 62 25 157 71 220 45 61
99 119 105 113 2 -2 -21 -53 -51 -114z m3111 -1657 c8 -24 6 -31 -10 -43 -23
-17 -77 -18 -93 -2 -32 32 9 81 63 76 22 -2 32 -10 40 -31z m646 -467 c25 -14
24 -27 -3 -35 -55 -15 -117 -51 -127 -72 -8 -18 -19 -23 -48 -23 -21 -1 -49
-7 -63 -15 -14 -8 -33 -14 -42 -15 -33 0 -19 31 37 86 43 42 63 54 88 55 18 0
50 6 72 14 51 17 62 17 86 5z m93 -96 c27 -26 19 -50 -21 -68 -56 -24 -82 -41
-98 -62 -13 -18 -15 -18 -44 10 -17 17 -31 37 -31 45 1 17 131 89 162 90 9 1
24 -6 32 -15z m70 -130 c15 -39 7 -47 -101 -98 -27 -12 -33 -21 -33 -45 0 -43
28 -39 119 13 50 30 67 -10 30 -70 -24 -40 -127 -134 -146 -134 -8 0 -24 10
-37 23 -20 20 -24 37 -30 124 -9 117 -2 138 47 147 18 3 48 17 67 31 40 28 75
32 84 9z m2070 -190 c3 -9 -6 -41 -20 -71 -23 -47 -30 -54 -53 -51 -31 4 -32
22 -2 91 16 38 25 47 45 47 13 0 27 -7 30 -16z m-134 -3 c0 -44 -60 -143 -97
-160 -37 -17 -39 -8 -9 43 14 24 26 53 26 63 0 30 29 63 56 63 13 0 24 -4 24
-9z m-140 -35 c0 -14 -12 -38 -26 -56 -25 -29 -27 -49 -10 -90 9 -22 -33 -44
-129 -69 -83 -22 -140 -27 -149 -13 -7 11 55 70 116 110 25 18 48 35 50 39 1
5 26 29 55 56 59 53 93 61 93 23z m335 -73 c-11 -47 -65 -150 -91 -174 l-24
-22 0 24 c0 14 16 49 35 79 19 30 38 64 41 75 15 47 51 64 39 18z m-2205 -134
c0 -6 -8 -23 -19 -37 -10 -15 -29 -47 -41 -72 -25 -50 -37 -61 -57 -53 -23 9
-14 31 43 103 54 67 74 83 74 59z m2119 -261 c92 -123 129 -180 163 -248 20
-41 35 -77 33 -78 -9 -9 -24 11 -30 37 -3 16 -15 37 -26 47 -10 9 -19 24 -19
33 0 9 -22 38 -48 64 -43 43 -50 46 -62 32 -11 -13 -7 -22 33 -62 44 -43 47
-50 47 -97 l-1 -51 -19 24 c-11 13 -20 29 -20 37 0 7 -14 37 -31 66 -56 94
-101 209 -88 224 19 23 35 16 68 -28z m-799 15 c0 -13 -164 -173 -177 -173
-12 0 -83 112 -83 131 0 5 12 9 28 10 15 0 59 9 97 19 72 20 135 25 135 13z
m-616 -89 c9 -3 16 -12 16 -20 0 -30 91 -29 114 1 6 7 36 17 67 20 l57 7 43
-63 c24 -35 49 -70 56 -77 23 -24 26 -19 -97 -152 -50 -54 -62 -77 -55 -100 9
-29 41 -25 72 10 36 40 53 39 53 -5 0 -60 49 -162 106 -219 64 -66 206 -136
275 -136 42 0 37 -24 -16 -93 -50 -63 -107 -109 -173 -139 l-42 -19 -68 36
c-164 86 -315 264 -347 409 -3 15 -15 40 -25 55 -11 14 -27 57 -37 95 -14 57
-14 76 -5 112 17 64 15 84 -10 93 -34 12 -50 3 -80 -43 -39 -61 -41 -70 -24
-111 9 -21 16 -41 16 -46 0 -17 -26 -9 -61 17 -19 14 -53 35 -76 46 -24 10
-43 24 -43 31 0 7 41 53 91 102 50 50 109 114 130 143 22 28 41 52 43 52 3 0
11 -3 20 -6z m1666 -338 c0 -8 18 -53 40 -100 22 -46 40 -87 40 -91 0 -4 16
-43 36 -88 83 -187 139 -344 214 -597 61 -209 150 -728 150 -881 0 -106 -65
-533 -80 -524 -4 3 -11 40 -14 82 -4 43 -9 97 -13 121 -4 34 -2 42 10 42 26 0
30 59 24 312 -5 182 -10 246 -22 275 -9 20 -19 84 -24 141 -4 57 -13 107 -19
111 -6 3 -17 54 -25 113 -9 58 -20 114 -25 124 -6 11 -13 46 -17 79 -4 33 -16
75 -26 93 -10 18 -19 45 -19 60 0 15 -7 39 -15 55 -8 15 -19 52 -24 83 -6 30
-17 65 -26 77 -8 12 -15 34 -15 49 0 16 -9 45 -20 65 -11 21 -20 44 -20 52 0
7 -8 28 -19 45 -10 17 -22 48 -25 68 -4 20 -11 38 -17 40 -6 2 -13 25 -16 50
-3 28 -13 54 -24 64 -11 10 -19 31 -19 49 0 18 -9 44 -20 58 -29 37 -25 54 5
19 14 -17 25 -37 25 -46z m-104 20 c31 -31 34 -39 34 -92 0 -38 5 -63 16 -75
10 -11 14 -31 12 -55 -3 -38 -4 -36 -35 47 -18 47 -33 89 -33 93 0 6 -36 91
-47 109 -12 20 23 3 53 -27z m-3466 -23 c0 -49 54 -155 111 -217 58 -63 157
-115 235 -123 35 -4 58 -11 61 -20 7 -17 -72 -100 -132 -141 -48 -33 -55 -41
-55 -70 0 -17 7 -24 31 -29 34 -7 49 -30 28 -44 -27 -19 -189 1 -269 32 -98
37 -140 67 -179 125 -27 41 -31 56 -31 114 0 134 38 244 122 351 64 81 78 85
78 22z m1608 -22 c15 -10 72 -46 128 -80 55 -33 110 -71 123 -85 23 -25 46
-92 61 -186 43 -261 50 -316 50 -430 0 -120 2 -130 40 -240 l40 -115 119 -120
c210 -211 302 -332 443 -580 70 -121 79 -133 138 -173 70 -46 87 -50 97 -26 4
11 -17 39 -67 89 -42 42 -71 79 -68 87 8 19 184 92 313 128 61 18 118 34 127
37 41 12 83 -161 83 -347 0 -111 -3 -134 -29 -210 -32 -94 -59 -153 -87 -189
-22 -27 -25 -74 -6 -89 6 -5 41 -22 77 -37 76 -32 100 -50 100 -79 -1 -55
-238 -279 -355 -336 -117 -56 -332 -118 -442 -127 -71 -6 -171 8 -218 29 -22
10 -22 16 -29 196 -9 231 -58 561 -85 570 -11 4 -12 -1 -7 -19 18 -59 46 -317
56 -511 12 -231 18 -263 55 -298 33 -31 31 -54 -5 -80 -98 -70 -269 -84 -443
-37 -163 45 -230 81 -344 189 -162 153 -341 282 -434 313 -27 9 -49 21 -49 27
0 10 73 133 120 203 15 22 39 58 53 80 15 22 47 65 72 95 51 62 58 82 18 50
-59 -46 -339 -404 -353 -450 -11 -37 6 -228 24 -279 9 -24 30 -67 47 -94 18
-30 27 -53 21 -59 -5 -5 -54 5 -123 26 -63 19 -140 39 -172 45 -103 19 -190
49 -268 94 -145 83 -208 153 -286 317 -22 47 -57 120 -77 163 -80 168 -269
305 -447 324 -72 7 -134 -21 -155 -72 -30 -73 -14 -221 37 -334 16 -35 29 -68
29 -72 0 -44 -144 85 -243 216 -102 136 -217 411 -217 520 0 52 35 244 57 310
33 100 155 255 202 255 64 0 321 -224 470 -410 42 -52 98 -132 124 -177 57
-97 66 -105 108 -101 37 3 50 23 20 33 -25 8 -65 108 -55 139 12 38 150 205
248 300 34 32 116 112 182 177 67 66 129 119 137 119 12 0 17 -13 19 -52 3
-48 6 -53 27 -56 34 -5 51 22 51 78 0 37 -13 75 -61 176 -34 71 -88 207 -120
304 l-58 175 22 35 c12 19 28 46 36 59 95 172 101 179 166 167 42 -8 89 10
138 54 45 39 61 32 53 -22 -12 -76 62 -158 142 -158 47 0 135 45 175 89 49 54
55 83 29 133 -23 46 -21 56 13 81 23 17 25 17 43 -1 57 -57 108 -66 184 -33
51 22 80 52 102 104 17 42 43 48 71 17 10 -11 23 -20 28 -20 5 0 47 -22 93
-50 92 -55 104 -59 104 -31 0 22 -44 52 -210 147 -63 36 -110 76 -110 94 0 17
32 40 56 40 14 0 37 -9 52 -19z m1987 -324 c14 -21 25 -51 25 -66 0 -16 9 -40
20 -54 14 -18 20 -40 20 -80 0 -40 5 -58 19 -71 10 -9 21 -34 25 -55 5 -32 12
-41 38 -52 44 -17 48 -24 48 -94 0 -37 6 -69 15 -82 9 -12 16 -51 18 -99 3
-67 9 -88 36 -137 29 -51 32 -61 22 -89 -18 -52 -14 -199 6 -228 20 -28 31
-104 39 -260 8 -149 -12 -120 -36 51 -56 411 -126 738 -209 974 -15 44 -38
114 -51 155 -12 41 -37 115 -56 164 -19 48 -34 91 -34 95 1 7 21 -19 55 -72z
m-3057 -80 c2 -9 -12 -36 -31 -59 -18 -24 -46 -64 -61 -90 -29 -51 -49 -60
-66 -29 -18 35 -11 52 58 127 65 72 93 87 100 51z m2219 -199 c23 -57 56 -139
74 -183 39 -98 47 -203 30 -417 -10 -126 -63 -485 -72 -492 -2 -1 -26 -15 -52
-30 -54 -31 -78 -28 -96 12 -7 15 -60 98 -118 184 -91 135 -105 161 -100 187
3 16 2 143 -3 281 -10 273 -16 300 -64 300 -33 0 -38 -22 -19 -72 23 -59 31
-468 9 -468 -28 0 -226 226 -245 280 -7 19 -17 109 -22 200 -5 91 -13 185 -19
210 -20 96 -17 98 56 32 76 -68 199 -133 265 -140 62 -6 112 24 221 132 45 46
90 84 98 85 11 1 29 -31 57 -101z m-4327 -156 c0 4 8 8 19 8 13 0 30 -24 60
-82 22 -46 41 -90 41 -99 0 -9 3 -19 8 -23 4 -4 7 -15 7 -24 0 -21 95 -192
107 -192 14 0 8 20 -13 41 -11 11 -19 25 -16 32 3 9 127 -154 127 -168 0 -2
-8 -1 -17 2 -12 5 -8 -5 12 -31 18 -23 34 -35 43 -31 10 3 54 -33 128 -107
124 -122 129 -133 99 -205 -17 -40 -42 -140 -55 -218 -12 -75 22 -274 59 -343
14 -26 14 -33 -1 -29 -16 3 -31 -73 -19 -100 10 -21 7 -20 -39 8 -68 42 -163
132 -279 264 -132 150 -145 169 -211 308 -70 146 -109 281 -141 487 -6 36 -18
103 -27 150 -16 87 -27 297 -18 335 5 19 10 20 66 15 33 -3 60 -2 60 2z m-792
-206 c38 -19 67 -77 87 -171 31 -145 90 -317 160 -470 62 -135 107 -226 111
-222 2 2 -12 49 -32 105 -36 105 -88 292 -82 298 2 2 14 -25 27 -59 40 -103
175 -375 245 -491 36 -60 98 -152 138 -205 133 -175 444 -471 560 -532 48 -25
163 -103 176 -118 22 -28 -100 -135 -228 -201 -131 -67 -317 -112 -363 -89
-12 6 -117 104 -232 218 -277 272 -436 424 -573 550 -62 57 -140 138 -174 180
-80 100 -201 284 -241 369 -29 60 -32 78 -35 175 -6 193 45 312 222 510 63 70
125 136 138 147 27 23 59 25 96 6z m5360 -273 c6 -16 36 -101 66 -191 63 -186
68 -167 -57 -201 -106 -29 -111 -28 -102 12 17 77 25 128 34 229 13 140 21
178 36 178 7 0 17 -12 23 -27z m-4188 -63 c0 -5 -2 -10 -4 -10 -3 0 -8 5 -11
10 -3 6 -1 10 4 10 6 0 11 -4 11 -10z m5868 -204 c6 -113 -21 -115 -33 -3 -6
63 -5 69 12 65 15 -3 19 -14 21 -62z m-4993 -798 c22 -5 68 -25 102 -44 72
-40 175 -148 171 -179 -2 -14 -34 -37 -104 -75 -56 -30 -119 -68 -142 -83 -22
-16 -49 -27 -59 -25 -37 7 -133 242 -133 326 0 34 28 82 53 92 22 8 36 7 112
-12z m3614 -55 c14 -59 20 -138 12 -152 -7 -10 -14 -10 -39 3 -17 9 -38 16
-47 16 -9 0 -18 6 -21 13 -6 16 63 157 77 157 4 0 12 -17 18 -37z m-2256 -489
c71 -36 174 -110 188 -136 9 -17 4 -34 -32 -104 -24 -46 -50 -86 -58 -89 -17
-7 -43 10 -98 64 -30 29 -46 56 -59 98 -23 79 -30 159 -14 178 16 19 11 20 73
-11z"/>
<path d="M5785 2941 c-19 -18 -71 -42 -215 -97 -36 -14 -69 -30 -74 -35 -17
-16 43 -10 77 8 18 9 86 35 152 58 97 34 120 45 120 61 0 26 -35 29 -60 5z"/>
<path d="M5390 2760 c0 -10 9 -24 21 -30 11 -7 37 -26 57 -44 21 -18 58 -45
84 -59 51 -30 68 -52 68 -90 0 -14 7 -31 16 -38 19 -15 61 5 241 118 100 63
120 79 110 89 -7 8 -113 -47 -204 -105 -88 -57 -126 -64 -131 -23 -3 22 -79
85 -150 123 -19 11 -32 28 -37 48 -6 27 -11 31 -41 31 -27 0 -34 -4 -34 -20z"/>
<path d="M4947 2604 c-14 -15 -6 -23 40 -38 53 -18 113 -21 113 -6 0 11 0 11
-70 28 -25 6 -52 13 -61 17 -8 3 -18 2 -22 -1z"/>
<path d="M4191 1911 c-21 -14 1 -20 44 -11 22 4 33 8 25 9 -8 1 -24 4 -35 6
-11 3 -26 1 -34 -4z"/>
<path d="M4294 1908 c-3 -4 21 -8 53 -9 32 0 94 -4 138 -9 85 -9 145 4 65 14
-82 10 -251 13 -256 4z"/>
<path d="M6640 1883 c0 -12 95 -102 223 -213 59 -51 107 -96 107 -101 0 -16
121 -101 135 -95 8 3 15 9 15 14 0 13 -92 108 -119 122 -13 6 -71 53 -130 103
-161 139 -231 190 -231 170z"/>
<path d="M2590 1425 c30 -31 80 -75 110 -98 30 -23 57 -45 60 -48 7 -8 130
-89 136 -89 2 0 22 -11 44 -25 53 -34 62 -32 22 5 -18 17 -43 30 -56 30 -16 0
-36 18 -69 64 -66 90 -169 170 -261 202 l-41 15 55 -56z"/>
<path d="M7047 2643 c-4 -3 -7 -59 -7 -124 0 -143 14 -163 47 -69 19 54 16
130 -7 168 -21 34 -23 36 -33 25z"/>
<path d="M3565 8406 c-22 -6 -41 -18 -43 -27 -2 -13 18 -14 151 -11 119 3 189
-1 317 -18 91 -12 182 -26 204 -32 21 -5 71 -16 110 -23 103 -20 354 -88 385
-104 11 -6 31 -11 46 -11 14 0 39 -10 55 -22 16 -12 33 -19 36 -15 33 33 -275
154 -561 220 -214 50 -599 74 -700 43z"/>
<path d="M3066 7867 c-28 -20 -17 -52 19 -55 62 -5 154 -25 265 -57 63 -18
133 -37 155 -41 22 -4 54 -13 72 -21 42 -17 96 -17 91 -1 -3 7 -23 20 -45 28
-22 8 -83 31 -134 51 -103 40 -136 49 -279 79 -52 11 -102 23 -111 25 -8 3
-23 -1 -33 -8z"/>
<path d="M2950 7508 c-34 -55 -42 -98 -47 -241 -11 -283 54 -601 126 -625 15
-5 16 -9 -18 141 -45 201 -48 535 -6 673 8 27 12 57 9 67 -9 28 -42 20 -64
-15z"/>
<path d="M1783 7179 c-125 -19 -176 -50 -141 -85 14 -15 25 -15 93 -5 204 30
539 4 842 -66 120 -27 143 -26 143 7 0 38 -122 77 -395 126 -158 28 -436 40
-542 23z"/>
<path d="M4110 6639 c-130 -19 -224 -75 -274 -165 -32 -57 -34 -84 -6 -84 15
0 26 13 39 44 38 88 162 154 309 164 60 4 72 8 72 22 0 12 -11 20 -31 24 -35
7 -31 7 -109 -5z"/>
<path d="M2845 5839 c-90 -47 -164 -154 -172 -247 -5 -54 10 -102 32 -102 17
0 16 -4 20 75 2 61 32 134 73 181 25 29 75 54 125 62 33 6 42 12 42 27 0 30
-68 32 -120 4z"/>
<path d="M2964 5367 c-116 -47 -210 -130 -261 -232 -25 -48 -62 -184 -65 -240
-3 -42 0 -40 -88 -64 -17 -4 -26 -14 -28 -33 -4 -34 27 -52 80 -45 43 6 58 -4
78 -53 12 -29 11 -33 -19 -64 -44 -45 -40 -80 8 -84 29 -3 40 2 68 33 19 21
40 35 47 32 67 -26 93 -29 130 -13 21 9 36 21 34 28 -3 7 -26 24 -52 37 -77
40 -95 77 -112 231 -12 105 56 275 130 328 59 42 125 74 144 69 15 -3 14 -5
-3 -12 -81 -34 -171 -135 -181 -201 -24 -165 69 -315 228 -365 59 -19 76 -20
137 -11 87 13 128 32 181 85 106 107 129 214 75 336 -37 82 -105 143 -186 166
-55 15 -59 18 -59 45 0 45 -31 60 -125 60 -67 -1 -94 -6 -161 -33z m254 -499
c27 -27 0 -88 -39 -88 -29 0 -69 22 -69 38 0 44 78 80 108 50z"/>
<path d="M4320 5209 c-19 -16 -102 -81 -185 -144 -159 -120 -254 -205 -274
-243 -19 -35 -6 -65 44 -106 98 -80 204 -103 320 -67 120 37 182 83 250 185
33 50 35 58 35 134 0 101 -27 181 -80 235 -45 45 -64 46 -110 6z"/>
<path d="M3232 4448 c-28 -28 -7 -108 28 -108 41 0 55 79 18 104 -27 19 -31
19 -46 4z"/>
<path d="M3100 4390 c-11 -20 -4 -66 13 -87 13 -18 54 -16 61 2 7 19 -3 75
-17 93 -14 18 -45 14 -57 -8z"/>
<path d="M2795 3850 c-16 -52 209 -448 370 -650 131 -165 253 -305 303 -347
122 -104 253 -185 270 -169 9 10 -59 71 -189 172 -99 76 -173 156 -330 354
-105 133 -227 338 -293 495 -66 156 -68 160 -98 163 -20 2 -28 -2 -33 -18z"/>
<path d="M1700 1113 c1 -23 39 -62 175 -183 83 -73 160 -142 173 -153 41 -38
22 -8 -52 80 -106 127 -252 263 -281 263 -8 0 -15 -3 -15 -7z"/>
<path d="M7280 970 c0 -5 7 -10 15 -10 8 0 15 5 15 10 0 6 -7 10 -15 10 -8 0
-15 -4 -15 -10z"/>
<path d="M3000 660 c0 -5 5 -10 10 -10 6 0 10 5 10 10 0 6 -4 10 -10 10 -5 0
-10 -4 -10 -10z"/>
</g>
</svg>
