<?xml version="1.0" standalone="no"?>
<!DOCTYPE svg PUBLIC "-//W3C//DTD SVG 20010904//EN"
 "http://www.w3.org/TR/2001/REC-SVG-20010904/DTD/svg10.dtd">
<svg version="1.0" xmlns="http://www.w3.org/2000/svg"
 width="512.000000pt" height="512.000000pt" viewBox="0 0 512.000000 512.000000"
 preserveAspectRatio="xMidYMid meet">
<metadata>
Created by potrace 1.14, written by Peter Selinger 2001-2017
</metadata>
<g transform="translate(0.000000,512.000000) scale(0.100000,-0.100000)"
fill="#000000" stroke="none">
<path d="M2038 3899 c-43 -4 -110 -18 -150 -29 -85 -25 -237 -87 -256 -105
-11 -9 -23 -9 -60 3 -26 8 -61 18 -78 23 -51 15 -303 10 -349 -6 -22 -8 -50
-15 -62 -15 -12 0 -25 -4 -28 -10 -3 -5 -15 -10 -26 -10 -10 0 -19 -4 -19 -9
0 -5 -12 -12 -26 -15 -54 -14 -123 -70 -149 -120 -22 -44 -25 -62 -25 -160 0
-148 8 -173 81 -246 l60 -60 70 0 c122 0 168 46 87 85 -92 44 -130 144 -93
241 19 50 74 98 126 109 17 4 42 13 57 21 19 9 63 14 140 14 l113 0 -54 -67
c-49 -63 -73 -101 -139 -223 -65 -120 -104 -300 -94 -431 9 -114 86 -372 147
-487 21 -41 26 -59 19 -80 -4 -15 -13 -47 -21 -72 -32 -112 -106 -297 -170
-423 -112 -223 -145 -320 -155 -457 -7 -92 11 -210 45 -300 23 -61 99 -188
164 -276 59 -79 200 -225 236 -244 32 -16 23 -3 -54 85 -237 269 -340 465
-352 671 -10 158 21 269 132 479 35 66 73 145 85 175 12 30 28 69 35 85 21 48
53 153 74 245 21 95 36 228 21 195 -5 -11 -9 -30 -9 -42 -1 -13 -5 -23 -11
-23 -14 0 -37 58 -72 185 -28 103 -30 117 -25 245 4 125 21 221 61 335 4 12 1
9 -8 -6 -22 -37 -57 -181 -71 -289 l-12 -95 -13 45 c-18 65 -7 246 20 335 32
101 83 197 160 300 95 128 97 129 171 121 34 -4 91 -18 127 -32 83 -31 98 -30
45 2 -67 40 -147 63 -263 76 -93 10 -122 9 -210 -5 -56 -9 -121 -26 -146 -36
-24 -11 -44 -16 -44 -11 0 14 72 72 141 113 35 21 53 36 39 32 -50 -14 -116
-60 -176 -121 -48 -50 -67 -79 -88 -134 -31 -84 -31 -85 -10 -147 20 -58 56
-108 97 -133 l31 -19 -28 -11 c-100 -37 -195 37 -232 181 -20 77 -15 189 10
237 21 41 103 94 216 141 83 35 87 36 225 36 208 0 342 -40 445 -132 27 -25
50 -42 50 -38 0 21 -35 65 -79 99 -28 21 -51 40 -51 42 0 2 35 21 78 43 45 23
124 50 192 66 104 25 127 27 240 22 136 -6 270 -37 359 -81 151 -77 419 -292
394 -317 -5 -5 -31 -13 -58 -18 -75 -14 -101 -27 -150 -72 -35 -33 -49 -55
-65 -106 -11 -36 -20 -76 -20 -89 0 -13 -2 -24 -4 -24 -1 0 -34 21 -72 46
-143 95 -425 214 -539 228 -43 6 -38 3 40 -23 50 -16 108 -36 129 -45 39 -16
39 -16 20 -38 l-19 -21 28 18 c27 17 30 17 63 2 31 -15 46 -37 26 -37 -5 0
-17 -7 -28 -15 -17 -14 -16 -14 13 0 18 8 40 15 49 15 23 0 145 -63 227 -117
l67 -45 0 -59 c0 -33 -4 -67 -9 -77 -5 -9 -12 -25 -15 -34 -3 -12 -15 -18 -34
-18 -51 0 -144 -54 -174 -102 -27 -41 -36 -82 -20 -92 4 -2 19 16 32 40 13 26
37 52 54 61 l31 16 -24 -26 c-16 -18 -25 -42 -28 -74 -4 -43 -1 -52 29 -86 44
-51 96 -59 163 -27 25 12 47 21 49 19 1 -2 7 -42 13 -89 10 -78 10 -87 -9
-112 -23 -33 -58 -128 -58 -158 0 -14 -44 -63 -126 -143 -131 -126 -185 -162
-299 -193 -98 -27 -208 -13 -244 30 -8 9 -22 21 -32 26 -14 8 -16 6 -12 -9 3
-12 -2 -23 -14 -29 -64 -34 -183 -19 -239 30 -34 30 -35 31 -28 92 4 33 8 62
9 64 2 2 21 -6 43 -17 22 -11 57 -25 79 -30 21 -5 47 -12 57 -17 12 -5 17 -4
13 3 -3 5 -37 25 -74 43 -124 61 -119 54 -127 193 -4 67 -11 145 -15 172 -7
41 -5 61 15 115 14 41 17 57 8 45 -8 -11 -17 -30 -21 -42 -3 -13 -8 -23 -12
-23 -4 0 -17 42 -29 92 -26 105 -27 102 56 140 23 10 42 21 42 23 0 6 -41 -10
-88 -34 l-39 -20 -12 25 c-19 42 -13 52 37 68 47 15 47 15 7 10 -22 -4 -46 -7
-53 -8 -10 -1 -72 122 -72 143 0 2 73 2 163 -1 139 -4 156 -2 122 8 -22 7 -98
13 -172 13 l-132 1 -15 28 c-33 60 -15 -15 30 -128 78 -196 112 -321 135 -489
56 -418 -19 -684 -271 -958 -45 -48 -96 -114 -113 -145 -18 -32 -35 -58 -38
-58 -11 0 -19 40 -26 123 -8 104 -28 98 -28 -9 0 -86 15 -141 71 -262 39 -85
103 -169 206 -268 193 -187 407 -384 418 -384 6 0 -4 22 -24 49 -20 26 -33 51
-29 55 3 3 0 6 -8 6 -8 0 -116 100 -241 223 -209 205 -229 228 -264 299 -32
68 -36 84 -31 128 3 28 19 73 34 100 26 45 180 227 194 229 4 1 10 -25 14 -56
18 -142 93 -333 189 -477 64 -96 186 -216 274 -270 34 -20 62 -41 62 -46 0 -8
-64 -67 -96 -87 -17 -11 -16 -12 11 -7 36 8 112 54 145 89 25 26 21 47 -4 26
-9 -7 -21 -9 -28 -5 -47 29 -174 131 -224 181 -164 162 -285 434 -287 648 -1
86 0 93 40 170 22 44 51 112 64 152 l23 72 29 -25 c15 -13 41 -27 55 -32 43
-12 174 -8 208 6 27 12 35 10 75 -12 55 -32 126 -34 224 -6 38 11 73 20 77 20
4 0 -5 -25 -18 -55 -69 -150 10 -265 181 -265 l52 0 39 -102 c21 -56 40 -104
41 -107 2 -3 -16 -19 -38 -34 -22 -16 -76 -71 -121 -123 -44 -51 -85 -91 -90
-88 -6 4 -19 25 -29 48 -10 22 -19 37 -19 31 0 -5 -21 12 -47 37 -60 58 -120
98 -146 98 -11 0 -37 -18 -57 -39 l-38 -39 -59 66 c-120 137 -195 256 -258
415 -20 51 -40 95 -43 99 -4 4 -9 -49 -10 -118 -7 -295 61 -571 177 -709 55
-67 163 -158 231 -195 30 -16 68 -41 83 -55 28 -25 29 -26 12 -53 -10 -15 -25
-36 -34 -48 -9 -11 2 -1 25 23 28 30 48 43 67 43 15 0 27 -2 27 -4 0 -1 -14
-56 -31 -120 -17 -65 -28 -120 -25 -124 3 -3 6 0 6 7 0 7 4 10 9 6 9 -5 63
154 77 225 5 22 19 38 55 60 27 16 54 30 59 30 5 0 23 -27 40 -60 54 -106 131
-162 254 -186 37 -6 38 -8 31 -40 -7 -42 10 -45 49 -9 20 18 34 24 49 19 19
-6 19 -5 6 8 -16 17 -93 43 -154 54 -101 17 -175 75 -222 173 -20 42 -48 91
-61 109 -47 61 -167 103 -200 70 -20 -20 -14 -100 12 -151 13 -26 18 -47 13
-47 -6 0 -39 28 -72 62 -74 76 -130 194 -128 269 2 115 71 241 122 224 34 -10
168 -141 213 -207 42 -63 54 -71 44 -33 -9 34 45 104 159 208 77 71 85 76 85
53 0 -31 17 -43 25 -17 4 13 -7 50 -28 98 -19 43 -42 102 -52 132 -17 53 -17
54 5 95 l21 41 -21 -27 c-26 -34 -40 -36 -40 -5 0 24 47 77 68 77 10 0 10 -5
2 -22 -10 -21 -10 -21 3 -5 8 9 27 17 44 17 16 0 38 7 49 15 28 21 34 19 34
-13 0 -36 16 -52 53 -52 58 0 97 42 76 81 -15 30 3 49 31 31 41 -25 94 -9 110
34 l10 25 47 -26 c27 -14 40 -20 29 -13 -104 73 -112 82 -81 94 16 6 112 -45
138 -74 20 -22 47 -156 47 -233 0 -103 23 -153 115 -251 45 -49 104 -127 131
-172 27 -46 61 -91 76 -100 38 -23 40 -20 6 14 -16 17 -28 36 -26 42 6 18 116
59 162 61 l40 2 13 -65 c14 -73 6 -133 -27 -208 -26 -58 -26 -59 14 -76 46
-19 49 -28 21 -65 -44 -60 -106 -104 -193 -137 -54 -20 -78 -33 -66 -36 49
-11 215 62 259 114 13 15 26 28 29 28 3 0 6 -48 7 -107 0 -88 2 -103 11 -83 7
15 11 91 12 185 0 125 -5 188 -23 285 -26 147 -131 470 -196 608 -25 52 -45
100 -45 106 0 6 15 29 33 52 17 22 52 84 77 137 25 53 49 96 53 97 19 1 135
-277 177 -425 65 -226 128 -679 131 -940 l1 -80 14 60 c7 33 13 79 14 102 0
22 11 83 25 135 13 51 33 167 45 258 11 91 24 189 30 219 12 67 13 356 1 432
-13 79 -33 146 -38 131 -3 -7 0 -34 6 -60 24 -98 31 -244 19 -392 -6 -80 -15
-149 -19 -154 -6 -6 -9 -3 -9 8 0 43 -55 258 -92 360 -52 142 -137 322 -187
396 l-39 57 25 37 c15 20 33 36 42 36 9 1 33 7 53 14 45 16 37 25 146 -149
125 -200 197 -401 226 -623 21 -160 20 -189 -9 -337 -29 -147 -94 -347 -160
-495 -78 -176 -45 -169 45 10 61 122 94 213 136 380 29 117 34 151 34 255 -1
256 -51 456 -180 720 -32 66 -79 151 -104 190 -25 38 -46 72 -46 75 0 3 30 16
68 28 37 13 83 34 103 47 45 29 47 39 63 283 8 108 17 186 23 190 18 11 25
140 13 217 -6 39 -15 102 -19 140 -10 86 -32 141 -89 222 -61 88 -110 126
-193 153 -75 23 -95 23 -284 1 -78 -10 -113 -10 -157 0 -75 15 -167 8 -184
-15 -7 -10 -41 -26 -76 -37 -35 -11 -73 -27 -85 -34 -29 -19 -47 -19 -64 1 -9
11 -25 15 -53 11 -40 -4 -44 -1 -136 87 -133 128 -285 224 -440 279 -65 23
-251 51 -309 46 -9 -1 -51 -5 -93 -10z m1868 -376 c79 -33 142 -93 184 -177
28 -55 37 -86 25 -86 -22 0 -123 82 -164 134 -51 64 -124 121 -169 133 -18 4
-21 8 -10 14 24 15 66 10 134 -18z m-433 -38 c61 -18 156 -88 157 -116 0 -12
-136 31 -160 51 -23 19 -50 33 -105 55 -18 7 -17 9 10 15 44 11 46 11 98 -5z
m-640 -679 c96 -41 117 -47 135 -42 11 4 23 3 26 -3 3 -5 14 -7 25 -4 13 3 20
-2 24 -17 3 -12 10 -19 16 -16 5 4 13 0 18 -7 4 -7 23 -19 41 -26 36 -15 44
-36 10 -26 -13 4 -70 29 -128 55 -58 27 -116 51 -129 55 -28 8 -91 45 -78 45
5 0 23 -6 40 -14z m-60 -171 c17 -105 17 -110 0 -123 -17 -12 -18 -7 -25 73
-3 48 -14 105 -22 126 -16 40 -16 40 6 37 20 -3 24 -13 41 -113z m-209 50 c7
-19 -32 -41 -46 -27 -15 15 -2 42 21 42 10 0 21 -7 25 -15z m604 -172 c2 -40
-2 -82 -8 -93 -8 -16 -7 -25 5 -42 20 -29 19 -58 -2 -74 -10 -7 -21 -14 -24
-14 -3 0 -9 42 -13 93 -3 50 -9 118 -12 150 l-7 59 29 -4 c29 -3 29 -4 32 -75z
m-334 -22 c7 -11 -118 -75 -135 -69 -18 6 30 57 64 67 43 12 65 13 71 2z m36
-36 c7 -9 11 -17 9 -19 -2 -1 -20 -12 -40 -24 -33 -20 -37 -20 -52 -5 -15 15
-14 18 21 40 44 27 46 27 62 8z m30 -60 c0 -8 -13 -21 -30 -30 -39 -20 -39
-37 0 -22 50 19 58 -3 16 -47 -49 -53 -70 -46 -76 24 -5 53 -4 56 25 72 37 21
65 23 65 3z m850 -72 c0 -2 -7 -17 -15 -33 -10 -19 -20 -27 -30 -24 -18 7 -18
4 0 42 10 20 21 29 30 25 8 -3 15 -7 15 -10z m-60 -3 c0 -50 -88 -110 -161
-110 l-44 1 55 49 c77 69 113 80 85 26 -18 -33 -18 -36 -6 -36 5 0 17 18 27
40 16 36 44 55 44 30z m-726 -25 c37 -28 107 -55 145 -55 36 0 59 -15 36 -23
-10 -5 -14 -3 -9 5 4 6 3 8 -4 4 -7 -4 -6 -16 5 -37 8 -17 13 -33 10 -36 -4
-3 -39 12 -79 32 -40 21 -90 47 -110 58 -31 15 -38 25 -38 48 0 35 3 36 44 4z
m806 -24 c-10 -34 -59 -106 -67 -98 -2 3 11 36 29 75 33 71 56 84 38 23z
m-917 -76 c-13 -25 -28 -45 -32 -45 -20 0 -18 15 4 42 14 16 25 34 25 39 0 5
6 9 14 9 11 0 8 -11 -11 -45z m890 -84 c46 -55 171 -332 225 -501 35 -110 66
-288 65 -385 0 -76 -25 -250 -37 -262 -2 -2 -7 31 -10 74 -21 240 -61 464
-113 632 -37 120 -106 297 -148 381 -33 65 -37 90 -15 90 4 0 19 -13 33 -29z
m-343 1 c0 -4 -15 -23 -34 -41 l-34 -33 -17 26 c-20 31 -21 29 25 43 44 14 60
15 60 5z m-168 -36 c26 -1 42 -8 57 -28 l21 -26 -35 -42 c-40 -47 -47 -75 -11
-41 l23 22 7 -42 c9 -56 69 -116 126 -125 22 -4 40 -10 40 -15 0 -17 -73 -89
-95 -95 -46 -11 -146 68 -178 141 -10 22 -23 49 -29 60 -6 11 -12 42 -13 70
-3 65 -3 64 -25 37 -14 -17 -18 -32 -13 -54 l6 -30 -42 27 c-22 15 -41 28 -41
29 0 1 23 26 50 56 28 30 50 58 50 63 0 6 14 6 33 2 17 -4 48 -8 69 -9z m-824
-205 c20 -29 70 -57 117 -67 l30 -6 -47 -42 c-53 -46 -58 -56 -28 -56 11 0 20
-4 20 -9 0 -16 -37 -23 -77 -15 -103 19 -150 66 -139 140 6 50 28 98 59 132
l21 22 12 -37 c7 -20 21 -48 32 -62z m1112 -216 c32 -83 33 -87 27 -202 -7
-159 -20 -217 -54 -232 -14 -7 -29 -8 -32 -4 -4 4 -27 40 -53 78 l-46 70 -6
124 c-3 68 -8 127 -11 129 -11 12 -12 -6 -3 -68 5 -36 6 -87 2 -114 l-6 -48
-45 43 c-62 61 -69 80 -78 199 l-7 105 34 -32 c18 -18 50 -39 71 -48 45 -19
71 -8 126 49 19 20 38 36 42 36 3 0 21 -38 39 -85z m-1684 -191 c31 -41 78
-94 106 -119 l49 -44 -16 -48 c-32 -91 -15 -213 41 -298 9 -14 13 -25 9 -25
-34 0 -230 192 -264 259 -48 95 -79 245 -87 426 l-6 120 56 -99 c30 -54 81
-132 112 -172z m1790 -95 c18 -51 32 -94 31 -94 -15 -6 -100 -25 -102 -23 -2
2 3 35 11 73 7 39 13 88 14 109 0 22 3 37 6 33 3 -3 21 -47 40 -98z m111 -435
c6 -44 5 -47 -13 -40 -10 5 -26 10 -35 13 -15 4 -15 10 5 53 24 54 32 49 43
-26z m-1457 46 c35 -18 80 -66 80 -87 0 -9 -119 -73 -137 -73 -22 0 -59 124
-48 160 8 26 53 27 105 0z"/>
<path d="M2208 3753 c23 -2 59 -2 80 0 20 2 1 4 -43 4 -44 0 -61 -2 -37 -4z"/>
<path d="M2343 3743 c9 -2 25 -2 35 0 9 3 1 5 -18 5 -19 0 -27 -2 -17 -5z"/>
<path d="M2408 3733 c7 -3 16 -2 19 1 4 3 -2 6 -13 5 -11 0 -14 -3 -6 -6z"/>
<path d="M2575 3690 c27 -12 43 -12 25 0 -8 5 -22 9 -30 9 -10 0 -8 -3 5 -9z"/>
<path d="M1943 3665 c-35 -25 -81 -107 -96 -175 -17 -72 -20 -109 -17 -190 l3
-55 8 74 c12 103 33 179 73 266 l34 73 55 7 c152 19 433 -54 656 -170 58 -31
95 -47 81 -36 -40 32 -209 117 -306 155 -49 19 -127 41 -173 50 -109 21 -289
21 -318 1z"/>
<path d="M2005 3515 c110 -24 120 -25 60 -5 -33 11 -73 19 -90 19 -20 0 -10
-5 30 -14z"/>
<path d="M1910 3380 c-16 -31 -24 -106 -11 -114 7 -5 11 7 11 38 0 24 4 56 10
70 11 31 5 34 -10 6z"/>
<path d="M1387 3238 c-14 -11 8 -13 120 -13 91 -1 165 -7 217 -18 92 -20 113
-15 35 7 -129 37 -336 50 -372 24z"/>
<path d="M2335 3016 c-32 -14 -58 -40 -68 -68 -10 -28 2 -21 13 6 13 35 51 57
112 66 49 7 50 8 13 8 -22 1 -53 -5 -70 -12z"/>
<path d="M1713 2943 c9 -2 25 -2 35 0 9 3 1 5 -18 5 -19 0 -27 -2 -17 -5z"/>
<path d="M1648 2933 c6 -2 18 -2 25 0 6 3 1 5 -13 5 -14 0 -19 -2 -12 -5z"/>
<path d="M1392 2705 c0 -16 2 -22 5 -12 2 9 2 23 0 30 -3 6 -5 -1 -5 -18z"/>
<path d="M1820 2658 c-11 -18 -19 -46 -19 -63 1 -28 2 -28 8 7 4 20 15 48 25
62 9 14 14 26 11 26 -3 0 -14 -15 -25 -32z"/>
<path d="M2668 2604 c-5 -4 -8 -19 -8 -33 1 -23 2 -24 11 -8 11 19 9 53 -3 41z"/>
<path d="M1382 2570 c0 -14 2 -19 5 -12 2 6 2 18 0 25 -3 6 -5 1 -5 -13z"/>
<path d="M1890 2494 c-55 -30 -85 -73 -102 -143 -9 -42 -17 -55 -37 -63 -20
-7 -23 -11 -11 -18 8 -5 22 -7 31 -5 23 8 43 -39 23 -55 -8 -7 -14 -16 -14
-21 0 -15 30 -10 36 6 5 11 16 13 45 9 41 -7 56 9 19 21 -45 14 -58 92 -29
169 18 50 26 59 69 81 27 14 63 25 80 25 18 0 29 4 25 10 -12 19 -89 10 -135
-16z"/>
<path d="M1915 2449 c-29 -26 -35 -38 -35 -71 0 -81 47 -128 128 -128 114 0
169 118 93 199 -26 28 -35 31 -90 31 -53 0 -64 -4 -96 -31z m112 -145 c8 -21
-19 -46 -40 -38 -20 7 -22 25 -5 42 17 17 37 15 45 -4z"/>
<path d="M2425 2409 c-107 -85 -145 -121 -145 -135 0 -24 61 -54 109 -54 110
0 183 109 136 200 -20 39 -40 37 -100 -11z m84 -34 c13 -49 1 -84 -42 -118
-34 -28 -39 -30 -75 -19 -21 7 -46 20 -55 30 -16 18 -14 22 54 80 82 72 104
77 118 27z"/>
<path d="M2031 2114 c0 -11 3 -14 6 -6 3 7 2 16 -1 19 -3 4 -6 -2 -5 -13z"/>
<path d="M1977 2113 c-3 -5 -1 -17 4 -28 7 -17 8 -17 8 8 1 27 -4 34 -12 20z"/>
<path d="M2271 1404 c0 -11 3 -14 6 -6 3 7 2 16 -1 19 -3 4 -6 -2 -5 -13z"/>
<path d="M3560 961 c0 -5 12 -17 28 -26 l27 -18 -24 27 c-26 28 -31 31 -31 17z"/>
<path d="M2766 837 c-27 -35 -33 -62 -17 -71 5 -4 11 0 14 6 3 10 18 6 53 -13
66 -35 73 -49 49 -96 -29 -57 -30 -59 -12 -44 15 12 17 11 17 -12 0 -14 -4
-29 -10 -32 -15 -9 -12 -25 5 -25 11 0 15 11 15 40 0 45 18 90 35 90 7 0 32
-16 56 -35 24 -19 53 -35 64 -35 l20 1 -20 11 c-11 6 -40 30 -65 53 -53 51
-158 125 -176 125 -22 0 -25 18 -8 45 24 37 9 31 -20 -8z"/>
<path d="M2790 642 c0 -12 19 -26 26 -19 2 2 -2 10 -11 17 -9 8 -15 8 -15 2z"/>
<path d="M3396 623 c-3 -3 -6 -25 -6 -47 1 -38 2 -40 15 -22 23 31 15 93 -9
69z"/>
</g>
</svg>
